<svg xmlns="http://www.w3.org/2000/svg" xmlns:xlink="http://www.w3.org/1999/xlink" viewBox="0 0 44 55" version="1.1" x="0px" y="0px"><title>预选座位</title><g stroke="none" stroke-width="1" fill="none" fill-rule="evenodd"><path d="M6.20659752,8.0375991 L6.53513382,8.01786064 C6.96356531,7.99980816 6.9643,8.0314 6.9643,8.0314 C7.60524118,8.0314 8.707691,8.5841474 9.04776835,9.43286061 L9.1023,9.5954 L12.6453,18.3634 L23.1043,16.9644 C23.9784538,18.1902462 25.1210101,19.2073349 26.4470237,19.934654 L26.7823,20.1104 L14.0383,21.8154 L15.3993,25.1794 L32.1723,23.1084 C33.109,23.1084 33.87603,23.821375 33.9503913,24.7277557 L33.9563,24.8724 L30.8983,32.4444 C30.40145,33.68605 29.7556875,33.943975 28.847839,33.9666634 L28.7023,33.9684 L27.8313,33.9684 L25.9693,38.2134 C27.495,38.38725 28.7797325,39.27227 29.5174146,40.5126494 L29.6293,40.7114 L12.4963,40.7114 C12.7163,40.2964 12.9973,39.9144 13.3343,39.5764 C14.1677667,38.7429333 15.2782467,38.2509422 16.4486591,38.1890477 L16.7003,38.1824 L21.7843,38.1824 L21.8133,38.095525 L21.8133,38.095525 L21.8483,38.0094 L23.6203,33.9684 L12.6403,33.9684 C11.7283,33.9734 10.9603,33.2874 10.8623,32.3794 C10.7843,32.26315 10.7192375,32.1362125 10.6696438,31.9998531 L10.3403,30.9264 L4.0593,10.3114 C3.9383,9.8584 4.0043,9.3744 4.2413,8.9694 C4.4783,8.5644 4.8673,8.2704 5.3223,8.1524 L6.0035562,8.05998227 C6.07866364,8.05089437 6.14874628,8.04303862 6.20659752,8.0375991 Z M31.2436,3.0003 C35.7556,3.0003 39.4126,6.6573 39.4126,11.1693 C39.4126,15.6813 35.7556,19.3393 31.2436,19.3393 C26.7306,19.3393 23.0736,15.6813 23.0736,11.1693 C23.0736,6.6573 26.7306,3.0003 31.2436,3.0003 Z M34.4526,8.1483 L29.9596,12.6413 L28.0336,10.7163 L26.7506,11.9993 L29.9596,15.2093 L35.7366,9.4323 L34.4526,8.1483 Z" fill="#000000"/></g><text x="0" y="59" fill="#000000" font-size="5px" font-weight="bold" font-family="'Helvetica Neue', Helvetica, Arial-Unicode, Arial, Sans-serif">Created by jackie</text><text x="0" y="64" fill="#000000" font-size="5px" font-weight="bold" font-family="'Helvetica Neue', Helvetica, Arial-Unicode, Arial, Sans-serif">from the Noun Project</text></svg>